<svg xmlns="http://www.w3.org/2000/svg" xmlns:xlink="http://www.w3.org/1999/xlink" width="130.5" height="114.5" viewBox="0 0 130.5 114.5"><defs><filter id="a" x="0" y="44" width="130.5" height="70.5" filterUnits="userSpaceOnUse"><feOffset dx="6" dy="6" input="SourceAlpha"/><feGaussianBlur stdDeviation="1.5" result="b"/><feFlood flood-opacity="0.161"/><feComposite operator="in" in2="b"/><feComposite in="SourceGraphic"/></filter><filter id="c" x="34.75" y="63.75" width="51.5" height="18.5" filterUnits="userSpaceOnUse"><feOffset dx="0.5" dy="0.5" input="SourceAlpha"/><feGaussianBlur stdDeviation="0.25" result="d"/><feFlood flood-opacity="0.161"/><feComposite operator="in" in2="d"/><feComposite in="SourceGraphic"/></filter><filter id="e" x="24.75" y="67.75" width="6.5" height="10.5" filterUnits="userSpaceOnUse"><feOffset dx="0.5" dy="0.5" input="SourceAlpha"/><feGaussianBlur stdDeviation="0.25" result="f"/><feFlood flood-opacity="0.161"/><feComposite operator="in" in2="f"/><feComposite in="SourceGraphic"/></filter><filter id="g" x="54.75" y="84.748" width="11.5" height="6.5" filterUnits="userSpaceOnUse"><feOffset dx="0.5" dy="0.5" input="SourceAlpha"/><feGaussianBlur stdDeviation="0.25" result="h"/><feFlood flood-opacity="0.161"/><feComposite operator="in" in2="h"/><feComposite in="SourceGraphic"/></filter><filter id="i" x="35" y="4" width="59" height="49" filterUnits="userSpaceOnUse"><feOffset dx="6" dy="6" input="SourceAlpha"/><feGaussianBlur stdDeviation="1" result="j"/><feFlood flood-opacity="0.161"/><feComposite operator="in" in2="j"/><feComposite in="SourceGraphic"/></filter></defs><g transform="translate(-4101.14 20481.994)"><g transform="translate(4101.14 -20437.994)"><g transform="matrix(1, 0, 0, 1, 0, -44)" filter="url(#a)"><g transform="translate(0 44)" fill="#dab98d" stroke="#707070" stroke-width="0.1"><rect width="120" height="60" rx="1" stroke="none"/><rect x="0.05" y="0.05" width="119.9" height="59.9" rx="0.95" fill="none"/></g></g></g><g transform="translate(4186.14 -20400.994) rotate(180)"><g transform="translate(0 0)"><g transform="matrix(-1, 0, 0, -1, 85, 81)" filter="url(#c)"><path d="M49.47,17H.53A.529.529,0,0,1,0,16.471V.529A.529.529,0,0,1,.53,0H49.47A.529.529,0,0,1,50,.529V16.471a.529.529,0,0,1-.53.529" transform="translate(85 81) rotate(180)" fill="#666"/></g><path d="M1.422.893H.14A.14.14,0,0,1,0,.753V.14A.14.14,0,0,1,.14,0H1.422a.14.14,0,0,1,.14.14V.753a.14.14,0,0,1-.14.14" transform="translate(1.928 2.195)" fill="#333"/><path d="M1.422.893H.14A.14.14,0,0,1,0,.753V.14A.14.14,0,0,1,.14,0H1.422a.14.14,0,0,1,.14.14V.753a.14.14,0,0,1-.14.14" transform="translate(4.532 2.195)" fill="#333"/><path d="M1.422.893H.14A.14.14,0,0,1,0,.753V.14A.14.14,0,0,1,.14,0H1.422a.14.14,0,0,1,.14.14V.753a.14.14,0,0,1-.14.14" transform="translate(6.467 2.195)" fill="#333"/><path d="M1.422.893H.14A.14.14,0,0,1,0,.753V.14A.14.14,0,0,1,.14,0H1.422a.14.14,0,0,1,.14.14V.753a.14.14,0,0,1-.14.14" transform="translate(8.402 2.195)" fill="#333"/><path d="M1.422.893H.14A.14.14,0,0,1,0,.753V.14A.14.14,0,0,1,.14,0H1.422a.14.14,0,0,1,.14.14V.753a.14.14,0,0,1-.14.14" transform="translate(10.708 2.195)" fill="#333"/><path d="M1.422.893H.14A.14.14,0,0,1,0,.753V.14A.14.14,0,0,1,.14,0H1.422a.14.14,0,0,1,.14.14V.753a.14.14,0,0,1-.14.14" transform="translate(12.643 2.195)" fill="#333"/><path d="M1.422.893H.14A.14.14,0,0,1,0,.753V.14A.14.14,0,0,1,.14,0H1.422a.14.14,0,0,1,.14.14V.753a.14.14,0,0,1-.14.14" transform="translate(14.577 2.195)" fill="#333"/><path d="M1.422.893H.14A.14.14,0,0,1,0,.753V.14A.14.14,0,0,1,.14,0H1.422a.14.14,0,0,1,.14.14V.753a.14.14,0,0,1-.14.14" transform="translate(16.512 2.195)" fill="#333"/><path d="M1.422.893H.14A.14.14,0,0,1,0,.753V.14A.14.14,0,0,1,.14,0H1.422a.14.14,0,0,1,.14.14V.753a.14.14,0,0,1-.14.14" transform="translate(18.818 2.195)" fill="#333"/><path d="M1.422.893H.14A.14.14,0,0,1,0,.753V.14A.14.14,0,0,1,.14,0H1.422a.14.14,0,0,1,.14.14V.753a.14.14,0,0,1-.14.14" transform="translate(20.753 2.195)" fill="#333"/><path d="M1.422.893H.14A.14.14,0,0,1,0,.753V.14A.14.14,0,0,1,.14,0H1.422a.14.14,0,0,1,.14.14V.753a.14.14,0,0,1-.14.14" transform="translate(22.687 2.195)" fill="#333"/><path d="M1.422.893H.14A.14.14,0,0,1,0,.753V.14A.14.14,0,0,1,.14,0H1.422a.14.14,0,0,1,.14.14V.753a.14.14,0,0,1-.14.14" transform="translate(24.622 2.195)" fill="#333"/><path d="M1.422.893H.14A.14.14,0,0,1,0,.753V.14A.14.14,0,0,1,.14,0H1.422a.14.14,0,0,1,.14.14V.753a.14.14,0,0,1-.14.14" transform="translate(26.928 2.195)" fill="#333"/><path d="M1.422.893H.14A.14.14,0,0,1,0,.753V.14A.14.14,0,0,1,.14,0H1.422a.14.14,0,0,1,.14.14V.753a.14.14,0,0,1-.14.14" transform="translate(28.863 2.195)" fill="#333"/><path d="M1.422.893H.14A.14.14,0,0,1,0,.753V.14A.14.14,0,0,1,.14,0H1.422a.14.14,0,0,1,.14.14V.753a.14.14,0,0,1-.14.14" transform="translate(31.616 2.195)" fill="#333"/><path d="M1.517,1.786H.194A.194.194,0,0,1,0,1.591V.081A.081.081,0,0,1,.081,0h1.55a.081.081,0,0,1,.081.081V1.591a.194.194,0,0,1-.194.194" transform="translate(1.928 3.599)" fill="#333"/><path d="M1.517,1.786H.194A.194.194,0,0,1,0,1.591V.081A.081.081,0,0,1,.081,0h1.55a.081.081,0,0,1,.081.081V1.591a.194.194,0,0,1-.194.194" transform="translate(4.086 3.599)" fill="#333"/><path d="M1.517,1.786H.194A.194.194,0,0,1,0,1.591V.081A.081.081,0,0,1,.081,0h1.55a.081.081,0,0,1,.081.081V1.591a.194.194,0,0,1-.194.194" transform="translate(6.244 3.599)" fill="#333"/><path d="M1.517,1.786H.194A.194.194,0,0,1,0,1.591V.081A.081.081,0,0,1,.081,0h1.55a.081.081,0,0,1,.081.081V1.591a.194.194,0,0,1-.194.194" transform="translate(8.402 3.599)" fill="#333"/><path d="M1.517,1.786H.194A.194.194,0,0,1,0,1.591V.081A.081.081,0,0,1,.081,0h1.55a.081.081,0,0,1,.081.081V1.591a.194.194,0,0,1-.194.194" transform="translate(10.559 3.599)" fill="#333"/><path d="M1.517,1.786H.194A.194.194,0,0,1,0,1.591V.081A.081.081,0,0,1,.081,0h1.55a.081.081,0,0,1,.081.081V1.591a.194.194,0,0,1-.194.194" transform="translate(12.717 3.599)" fill="#333"/><path d="M1.517,1.786H.194A.194.194,0,0,1,0,1.591V.081A.081.081,0,0,1,.081,0h1.55a.081.081,0,0,1,.081.081V1.591a.194.194,0,0,1-.194.194" transform="translate(14.875 3.599)" fill="#333"/><path d="M1.517,1.786H.194A.194.194,0,0,1,0,1.591V.081A.081.081,0,0,1,.081,0h1.55a.081.081,0,0,1,.081.081V1.591a.194.194,0,0,1-.194.194" transform="translate(17.033 3.599)" fill="#333"/><path d="M1.517,1.786H.194A.194.194,0,0,1,0,1.591V.081A.081.081,0,0,1,.081,0H1.63a.081.081,0,0,1,.081.081V1.591a.194.194,0,0,1-.194.194" transform="translate(19.19 3.599)" fill="#333"/><path d="M1.517,1.786H.194A.194.194,0,0,1,0,1.591V.081A.081.081,0,0,1,.081,0H1.63a.081.081,0,0,1,.081.081V1.591a.194.194,0,0,1-.194.194" transform="translate(21.348 3.599)" fill="#333"/><path d="M1.517,1.786H.194A.194.194,0,0,1,0,1.591V.081A.081.081,0,0,1,.081,0h1.55a.081.081,0,0,1,.081.081V1.591a.194.194,0,0,1-.194.194" transform="translate(23.506 3.599)" fill="#333"/><path d="M1.517,1.786H.194A.194.194,0,0,1,0,1.591V.081A.081.081,0,0,1,.081,0H1.63a.081.081,0,0,1,.081.081V1.591a.194.194,0,0,1-.194.194" transform="translate(25.664 3.599)" fill="#333"/><path d="M1.517,1.786H.194A.194.194,0,0,1,0,1.591V.081A.081.081,0,0,1,.081,0H1.63a.081.081,0,0,1,.081.081V1.591a.194.194,0,0,1-.194.194" transform="translate(27.821 3.599)" fill="#333"/><path d="M3.005,1.786H.194A.194.194,0,0,1,0,1.591V.081A.081.081,0,0,1,.081,0H3.119A.081.081,0,0,1,3.2.081V1.591a.194.194,0,0,1-.194.194" transform="translate(29.979 3.599)" fill="#333"/><path d="M2.41,1.786H.194A.194.194,0,0,1,0,1.591V.081A.081.081,0,0,1,.081,0H2.523A.081.081,0,0,1,2.6.081V1.591a.194.194,0,0,1-.194.194" transform="translate(1.928 5.752)" fill="#333"/><path d="M1.517,1.786H.194A.194.194,0,0,1,0,1.591V.081A.081.081,0,0,1,.081,0h1.55a.081.081,0,0,1,.081.081V1.591a.194.194,0,0,1-.194.194" transform="translate(4.979 5.752)" fill="#333"/><path d="M1.517,1.786H.194A.194.194,0,0,1,0,1.591V.081A.081.081,0,0,1,.081,0h1.55a.081.081,0,0,1,.081.081V1.591a.194.194,0,0,1-.194.194" transform="translate(7.137 5.752)" fill="#333"/><path d="M1.517,1.786H.194A.194.194,0,0,1,0,1.591V.081A.081.081,0,0,1,.081,0h1.55a.081.081,0,0,1,.081.081V1.591a.194.194,0,0,1-.194.194" transform="translate(9.294 5.752)" fill="#333"/><path d="M1.517,1.786H.194A.194.194,0,0,1,0,1.591V.081A.081.081,0,0,1,.081,0h1.55a.081.081,0,0,1,.081.081V1.591a.194.194,0,0,1-.194.194" transform="translate(11.452 5.752)" fill="#333"/><path d="M1.517,1.786H.194A.194.194,0,0,1,0,1.591V.081A.081.081,0,0,1,.081,0h1.55a.081.081,0,0,1,.081.081V1.591a.194.194,0,0,1-.194.194" transform="translate(13.61 5.752)" fill="#333"/><path d="M1.517,1.786H.194A.194.194,0,0,1,0,1.591V.081A.081.081,0,0,1,.081,0H1.63a.081.081,0,0,1,.081.081V1.591a.194.194,0,0,1-.194.194" transform="translate(15.768 5.752)" fill="#333"/><path d="M1.517,1.786H.194A.194.194,0,0,1,0,1.591V.081A.081.081,0,0,1,.081,0H1.63a.081.081,0,0,1,.081.081V1.591a.194.194,0,0,1-.194.194" transform="translate(17.925 5.752)" fill="#333"/><path d="M1.517,1.786H.194A.194.194,0,0,1,0,1.591V.081A.081.081,0,0,1,.081,0h1.55a.081.081,0,0,1,.081.081V1.591a.194.194,0,0,1-.194.194" transform="translate(20.083 5.752)" fill="#333"/><path d="M1.517,1.786H.194A.194.194,0,0,1,0,1.591V.081A.081.081,0,0,1,.081,0H1.63a.081.081,0,0,1,.081.081V1.591a.194.194,0,0,1-.194.194" transform="translate(22.241 5.752)" fill="#333"/><path d="M1.517,1.786H.194A.194.194,0,0,1,0,1.591V.081A.081.081,0,0,1,.081,0h1.55a.081.081,0,0,1,.081.081V1.591a.194.194,0,0,1-.194.194" transform="translate(24.399 5.752)" fill="#333"/><path d="M1.517,1.786H.194A.194.194,0,0,1,0,1.591V.081A.081.081,0,0,1,.081,0h1.55a.081.081,0,0,1,.081.081V1.591a.194.194,0,0,1-.194.194" transform="translate(26.556 5.752)" fill="#333"/><path d="M1.517,1.786H.194A.194.194,0,0,1,0,1.591V.081A.081.081,0,0,1,.081,0h1.55a.081.081,0,0,1,.081.081V1.591a.194.194,0,0,1-.194.194" transform="translate(28.714 5.752)" fill="#333"/><path d="M2.112,1.786H.194A.194.194,0,0,1,0,1.591V.081A.081.081,0,0,1,.081,0H2.226a.081.081,0,0,1,.081.081V1.591a.194.194,0,0,1-.194.194" transform="translate(30.872 5.752)" fill="#333"/><path d="M3.265,1.786H.194A.194.194,0,0,1,0,1.591V.081A.081.081,0,0,1,.081,0h3.3A.081.081,0,0,1,3.46.081V1.591a.194.194,0,0,1-.194.194" transform="translate(1.928 7.978)" fill="#333"/><path d="M1.517,1.786H.194A.194.194,0,0,1,0,1.591V.081A.081.081,0,0,1,.081,0h1.55a.081.081,0,0,1,.081.081V1.591a.194.194,0,0,1-.194.194" transform="translate(5.835 7.978)" fill="#333"/><path d="M1.517,1.786H.194A.194.194,0,0,1,0,1.591V.081A.081.081,0,0,1,.081,0h1.55a.081.081,0,0,1,.081.081V1.591a.194.194,0,0,1-.194.194" transform="translate(7.992 7.978)" fill="#333"/><path d="M1.517,1.786H.194A.194.194,0,0,1,0,1.591V.081A.081.081,0,0,1,.081,0h1.55a.081.081,0,0,1,.081.081V1.591a.194.194,0,0,1-.194.194" transform="translate(10.15 7.978)" fill="#333"/><path d="M1.517,1.786H.194A.194.194,0,0,1,0,1.591V.081A.081.081,0,0,1,.081,0h1.55a.081.081,0,0,1,.081.081V1.591a.194.194,0,0,1-.194.194" transform="translate(12.308 7.978)" fill="#333"/><path d="M1.517,1.786H.194A.194.194,0,0,1,0,1.591V.081A.081.081,0,0,1,.081,0h1.55a.081.081,0,0,1,.081.081V1.591a.194.194,0,0,1-.194.194" transform="translate(14.466 7.978)" fill="#333"/><path d="M1.517,1.786H.194A.194.194,0,0,1,0,1.591V.081A.081.081,0,0,1,.081,0h1.55a.081.081,0,0,1,.081.081V1.591a.194.194,0,0,1-.194.194" transform="translate(16.623 7.978)" fill="#333"/><path d="M1.517,1.786H.194A.194.194,0,0,1,0,1.591V.081A.081.081,0,0,1,.081,0H1.63a.081.081,0,0,1,.081.081V1.591a.194.194,0,0,1-.194.194" transform="translate(18.781 7.978)" fill="#333"/><path d="M1.517,1.786H.194A.194.194,0,0,1,0,1.591V.081A.081.081,0,0,1,.081,0h1.55a.081.081,0,0,1,.081.081V1.591a.194.194,0,0,1-.194.194" transform="translate(20.939 7.978)" fill="#333"/><path d="M1.517,1.786H.194A.194.194,0,0,1,0,1.591V.081A.081.081,0,0,1,.081,0H1.63a.081.081,0,0,1,.081.081V1.591a.194.194,0,0,1-.194.194" transform="translate(23.097 7.978)" fill="#333"/><path d="M1.517,1.786H.194A.194.194,0,0,1,0,1.591V.081A.081.081,0,0,1,.081,0h1.55a.081.081,0,0,1,.081.081V1.591a.194.194,0,0,1-.194.194" transform="translate(25.254 7.978)" fill="#333"/><path d="M1.517,1.786H.194A.194.194,0,0,1,0,1.591V.081A.081.081,0,0,1,.081,0h1.55a.081.081,0,0,1,.081.081V1.591a.194.194,0,0,1-.194.194" transform="translate(27.412 7.978)" fill="#333"/><path d="M3.414,1.786H.194A.194.194,0,0,1,0,1.591V.081A.081.081,0,0,1,.081,0H3.528a.081.081,0,0,1,.081.081V1.591a.194.194,0,0,1-.194.194" transform="translate(29.57 7.978)" fill="#333"/><path d="M4.419,1.786H.194A.194.194,0,0,1,0,1.591V.081A.081.081,0,0,1,.081,0H4.532a.081.081,0,0,1,.081.081V1.591a.194.194,0,0,1-.194.194" transform="translate(1.928 10.279)" fill="#333"/><path d="M1.517,1.786H.194A.194.194,0,0,1,0,1.591V.081A.081.081,0,0,1,.081,0h1.55a.081.081,0,0,1,.081.081V1.591a.194.194,0,0,1-.194.194" transform="translate(6.988 10.279)" fill="#333"/><path d="M1.517,1.786H.194A.194.194,0,0,1,0,1.591V.081A.081.081,0,0,1,.081,0h1.55a.081.081,0,0,1,.081.081V1.591a.194.194,0,0,1-.194.194" transform="translate(9.146 10.279)" fill="#333"/><path d="M1.517,1.786H.194A.194.194,0,0,1,0,1.591V.081A.081.081,0,0,1,.081,0h1.55a.081.081,0,0,1,.081.081V1.591a.194.194,0,0,1-.194.194" transform="translate(11.303 10.279)" fill="#333"/><path d="M1.517,1.786H.194A.194.194,0,0,1,0,1.591V.081A.081.081,0,0,1,.081,0h1.55a.081.081,0,0,1,.081.081V1.591a.194.194,0,0,1-.194.194" transform="translate(13.461 10.279)" fill="#333"/><path d="M1.517,1.786H.194A.194.194,0,0,1,0,1.591V.081A.081.081,0,0,1,.081,0h1.55a.081.081,0,0,1,.081.081V1.591a.194.194,0,0,1-.194.194" transform="translate(15.619 10.279)" fill="#333"/><path d="M1.517,1.786H.194A.194.194,0,0,1,0,1.591V.081A.081.081,0,0,1,.081,0h1.55a.081.081,0,0,1,.081.081V1.591a.194.194,0,0,1-.194.194" transform="translate(17.777 10.279)" fill="#333"/><path d="M1.517,1.786H.194A.194.194,0,0,1,0,1.591V.081A.081.081,0,0,1,.081,0h1.55a.081.081,0,0,1,.081.081V1.591a.194.194,0,0,1-.194.194" transform="translate(19.934 10.279)" fill="#333"/><path d="M1.517,1.786H.194A.194.194,0,0,1,0,1.591V.081A.081.081,0,0,1,.081,0h1.55a.081.081,0,0,1,.081.081V1.591a.194.194,0,0,1-.194.194" transform="translate(22.092 10.279)" fill="#333"/><path d="M1.517,1.786H.194A.194.194,0,0,1,0,1.591V.081A.081.081,0,0,1,.081,0h1.55a.081.081,0,0,1,.081.081V1.591a.194.194,0,0,1-.194.194" transform="translate(24.25 10.279)" fill="#333"/><path d="M1.517,1.786H.194A.194.194,0,0,1,0,1.591V.081A.081.081,0,0,1,.081,0h1.55a.081.081,0,0,1,.081.081V1.591a.194.194,0,0,1-.194.194" transform="translate(26.408 10.279)" fill="#333"/><path d="M4.419,1.786H.194A.194.194,0,0,1,0,1.591V.081A.081.081,0,0,1,.081,0H4.532a.081.081,0,0,1,.081.081V1.591a.194.194,0,0,1-.194.194" transform="translate(28.565 10.279)" fill="#333"/><path d="M3.265,1.786H.194A.194.194,0,0,1,0,1.591V.081A.081.081,0,0,1,.081,0h3.3A.081.081,0,0,1,3.46.081V1.591a.194.194,0,0,1-.194.194" transform="translate(1.928 12.579)" fill="#333"/><path d="M1.78,1.786H.194A.194.194,0,0,1,0,1.591V.081A.081.081,0,0,1,.081,0H1.894a.081.081,0,0,1,.081.081V1.591a.194.194,0,0,1-.194.194" transform="translate(5.866 12.579)" fill="#333"/><path d="M1.78,1.786H.194A.194.194,0,0,1,0,1.591V.081A.081.081,0,0,1,.081,0H1.894a.081.081,0,0,1,.081.081V1.591a.194.194,0,0,1-.194.194" transform="translate(8.307 12.579)" fill="#333"/><path d="M10.594,1.786H.194A.194.194,0,0,1,0,1.591V.081A.081.081,0,0,1,.081,0H10.708a.081.081,0,0,1,.081.081V1.591a.194.194,0,0,1-.194.194" transform="translate(10.857 12.579)" fill="#333"/><path d="M1.517,1.786H.194A.194.194,0,0,1,0,1.591V.081A.081.081,0,0,1,.081,0h1.55a.081.081,0,0,1,.081.081V1.591a.194.194,0,0,1-.194.194" transform="translate(22.092 12.579)" fill="#333"/><path d="M1.517,1.786H.194A.194.194,0,0,1,0,1.591V.081A.081.081,0,0,1,.081,0h1.55a.081.081,0,0,1,.081.081V1.591a.194.194,0,0,1-.194.194" transform="translate(24.25 12.579)" fill="#333"/><path d="M2.521,1.786H.194A.194.194,0,0,1,0,1.591V.081A.081.081,0,0,1,.081,0H2.635a.081.081,0,0,1,.081.081V1.591a.194.194,0,0,1-.194.194" transform="translate(26.408 12.579)" fill="#333"/><path d="M1.517,1.786H.194A.194.194,0,0,1,0,1.591V.081A.081.081,0,0,1,.081,0H1.63a.081.081,0,0,1,.081.081V1.591a.194.194,0,0,1-.194.194" transform="translate(31.876 12.579)" fill="#333"/><path d="M1.517,1.786H.194A.194.194,0,0,1,0,1.591V.081A.081.081,0,0,1,.081,0H1.63a.081.081,0,0,1,.081.081V1.591a.194.194,0,0,1-.194.194" transform="translate(34.208 12.579)" fill="#333"/><path d="M1.517,1.786H.194A.194.194,0,0,1,0,1.591V.081A.081.081,0,0,1,.081,0H1.63a.081.081,0,0,1,.081.081V1.591a.194.194,0,0,1-.194.194" transform="translate(34.208 10.279)" fill="#333"/><path d="M1.517,1.786H.194A.194.194,0,0,1,0,1.591V.081A.081.081,0,0,1,.081,0H1.63a.081.081,0,0,1,.081.081V1.591a.194.194,0,0,1-.194.194" transform="translate(34.208 3.599)" fill="#333"/><path d="M1.517,3.943H.194A.194.194,0,0,1,0,3.749V.081A.081.081,0,0,1,.081,0H1.63a.081.081,0,0,1,.081.081V3.749a.194.194,0,0,1-.194.194" transform="translate(34.208 5.749)" fill="#333"/><path d="M1.517,1.786H.194A.194.194,0,0,1,0,1.591V.081A.081.081,0,0,1,.081,0H1.63a.081.081,0,0,1,.081.081V1.591a.194.194,0,0,1-.194.194" transform="translate(36.539 3.599)" fill="#333"/><path d="M1.517,1.786H.194A.194.194,0,0,1,0,1.591V.081A.081.081,0,0,1,.081,0H1.63a.081.081,0,0,1,.081.081V1.591a.194.194,0,0,1-.194.194" transform="translate(36.539 5.752)" fill="#333"/><path d="M1.517,1.786H.194A.194.194,0,0,1,0,1.591V.081A.081.081,0,0,1,.081,0H1.63a.081.081,0,0,1,.081.081V1.591a.194.194,0,0,1-.194.194" transform="translate(36.539 7.904)" fill="#333"/><path d="M1.517,1.786H.194A.194.194,0,0,1,0,1.591V.081A.081.081,0,0,1,.081,0H1.63a.081.081,0,0,1,.081.081V1.591a.194.194,0,0,1-.194.194" transform="translate(36.539 12.579)" fill="#333"/><path d="M1.422.893H.14A.14.14,0,0,1,0,.753V.14A.14.14,0,0,1,.14,0H1.422a.14.14,0,0,1,.14.14V.753a.14.14,0,0,1-.14.14" transform="translate(34.282 2.195)" fill="#333"/><path d="M1.422.893H.14A.14.14,0,0,1,0,.753V.14A.14.14,0,0,1,.14,0H1.422a.14.14,0,0,1,.14.14V.753a.14.14,0,0,1-.14.14" transform="translate(36.613 2.195)" fill="#333"/><path d="M1.517,1.786H.194A.194.194,0,0,1,0,1.591V.081A.081.081,0,0,1,.081,0H1.63a.081.081,0,0,1,.081.081V1.591a.194.194,0,0,1-.194.194" transform="translate(39.366 3.599)" fill="#333"/><path d="M1.517,1.786H.194A.194.194,0,0,1,0,1.591V.081A.081.081,0,0,1,.081,0H1.63a.081.081,0,0,1,.081.081V1.591a.194.194,0,0,1-.194.194" transform="translate(41.698 3.599)" fill="#333"/><path d="M1.517,1.786H.194A.194.194,0,0,1,0,1.591V.081A.081.081,0,0,1,.081,0H1.63a.081.081,0,0,1,.081.081V1.591a.194.194,0,0,1-.194.194" transform="translate(44.029 3.599)" fill="#333"/><path d="M1.517,1.786H.194A.194.194,0,0,1,0,1.591V.081A.081.081,0,0,1,.081,0h1.55a.081.081,0,0,1,.081.081V1.591a.194.194,0,0,1-.194.194" transform="translate(46.361 3.599)" fill="#333"/><path d="M1.517,1.786H.194A.194.194,0,0,1,0,1.591V.081A.081.081,0,0,1,.081,0H1.63a.081.081,0,0,1,.081.081V1.591a.194.194,0,0,1-.194.194" transform="translate(39.366 5.752)" fill="#333"/><path d="M1.517,1.786H.194A.194.194,0,0,1,0,1.591V.081A.081.081,0,0,1,.081,0H1.63a.081.081,0,0,1,.081.081V1.591a.194.194,0,0,1-.194.194" transform="translate(41.698 5.752)" fill="#333"/><path d="M1.517,1.786H.194A.194.194,0,0,1,0,1.591V.081A.081.081,0,0,1,.081,0H1.63a.081.081,0,0,1,.081.081V1.591a.194.194,0,0,1-.194.194" transform="translate(44.029 5.752)" fill="#333"/><path d="M1.517,4.018H.194A.194.194,0,0,1,0,3.824V.081A.081.081,0,0,1,.081,0h1.55a.081.081,0,0,1,.081.081V3.824a.194.194,0,0,1-.194.194" transform="translate(46.361 5.749)" fill="#333"/><path d="M1.517,1.786H.194A.194.194,0,0,1,0,1.591V.081A.081.081,0,0,1,.081,0H1.63a.081.081,0,0,1,.081.081V1.591a.194.194,0,0,1-.194.194" transform="translate(39.366 7.978)" fill="#333"/><path d="M1.517,1.786H.194A.194.194,0,0,1,0,1.591V.081A.081.081,0,0,1,.081,0H1.63a.081.081,0,0,1,.081.081V1.591a.194.194,0,0,1-.194.194" transform="translate(41.698 7.978)" fill="#333"/><path d="M1.517,1.786H.194A.194.194,0,0,1,0,1.591V.081A.081.081,0,0,1,.081,0H1.63a.081.081,0,0,1,.081.081V1.591a.194.194,0,0,1-.194.194" transform="translate(44.029 7.978)" fill="#333"/><path d="M1.517,1.786H.194A.194.194,0,0,1,0,1.591V.081A.081.081,0,0,1,.081,0H1.63a.081.081,0,0,1,.081.081V1.591a.194.194,0,0,1-.194.194" transform="translate(39.366 10.204)" fill="#333"/><path d="M1.517,1.786H.194A.194.194,0,0,1,0,1.591V.081A.081.081,0,0,1,.081,0H1.63a.081.081,0,0,1,.081.081V1.591a.194.194,0,0,1-.194.194" transform="translate(41.698 10.204)" fill="#333"/><path d="M1.517,1.786H.194A.194.194,0,0,1,0,1.591V.081A.081.081,0,0,1,.081,0H1.63a.081.081,0,0,1,.081.081V1.591a.194.194,0,0,1-.194.194" transform="translate(44.029 10.204)" fill="#333"/><path d="M1.517,4.018H.194A.194.194,0,0,1,0,3.824V.081A.081.081,0,0,1,.081,0h1.55a.081.081,0,0,1,.081.081V3.824a.194.194,0,0,1-.194.194" transform="translate(46.361 10.2)" fill="#333"/><path d="M3.848,1.786H.194A.194.194,0,0,1,0,1.591V.081A.081.081,0,0,1,.081,0H3.962a.081.081,0,0,1,.081.081V1.591a.194.194,0,0,1-.194.194" transform="translate(39.366 12.431)" fill="#333"/><path d="M1.517,1.786H.194A.194.194,0,0,1,0,1.591V.081A.081.081,0,0,1,.081,0H1.63a.081.081,0,0,1,.081.081V1.591a.194.194,0,0,1-.194.194" transform="translate(44.029 12.431)" fill="#333"/><path d="M3.908.893H.135A.135.135,0,0,1,0,.758V.135A.135.135,0,0,1,.135,0H3.908a.135.135,0,0,1,.135.135V.758a.135.135,0,0,1-.135.135" transform="translate(44.029 2.195)" fill="red"/></g></g><g transform="translate(4131.14 -20404.994) rotate(180)"><g transform="matrix(-1, 0, 0, -1, 30, 77)" filter="url(#e)"><path d="M4.814,4.023A10.329,10.329,0,0,0,5,2.673v0H5Q5,2.6,5,2.533a2.715,2.715,0,0,0-.144-.911A2.546,2.546,0,0,0,2.562,0H2.438A2.546,2.546,0,0,0,.144,1.622,2.712,2.712,0,0,0,0,2.533Q0,2.6,0,2.668H0v0a10.349,10.349,0,0,0,.183,1.35C.415,5.368-.4,7.054.591,8.229A2.4,2.4,0,0,0,2.5,9a2.4,2.4,0,0,0,1.909-.77c1-1.175.176-2.861.406-4.206" transform="translate(30 77) rotate(180)" fill="#4d4d4d"/></g><path d="M.39,5.375C-.287,4.2.395,2.64.183,1.375A10.735,10.735,0,0,1,0,0C.016.46,1.155,2.783,1.231,3.236,1.441,4.487-.1,4.477.39,5.375" transform="translate(0 2.545)" fill="#333"/><path d="M.861,5.375c.677-1.174-.005-2.735.206-4A10.691,10.691,0,0,0,1.251,0C1.235.46.1,2.783.02,3.236-.19,4.487,1.347,4.477.861,5.375" transform="translate(3.749 2.545)" fill="#333"/><line y2="3.625" transform="translate(2.5 0.015)" fill="none" stroke="#000" stroke-miterlimit="10" stroke-width="0.686"/><path d="M.334,1.9A.327.327,0,0,1,0,1.582V.318A.327.327,0,0,1,.334,0,.327.327,0,0,1,.669.318V1.582A.327.327,0,0,1,.334,1.9" transform="translate(2.158 1.006)"/><path d="M.428,1.776H.109A.11.11,0,0,1,0,1.666V.109A.11.11,0,0,1,.109,0H.428A.11.11,0,0,1,.537.109V1.666a.11.11,0,0,1-.109.109" transform="translate(2.224 1.068)" fill="red"/></g><g transform="translate(4191.14 -20387.996) rotate(180)"><g transform="matrix(-1, 0, 0, -1, 90, 94)" filter="url(#g)"><ellipse cx="5" cy="2.5" rx="5" ry="2.5" transform="translate(65 90) rotate(180)" fill="#333"/></g><g fill="#fff" stroke="#333" stroke-width="1"><rect width="60" height="2" stroke="none"/><rect x="0.5" y="0.5" width="59" height="1" fill="none"/></g><g transform="translate(0 2)" fill="#c7c7c7"><path d="M 51.85660171508789 4.5 L 8.143400192260742 4.5 L 1.743399977684021 0.5 L 58.25659942626953 0.5 L 51.85660171508789 4.5 Z" stroke="none"/><path d="M 3.486801147460938 1 L 8.286800384521484 4 L 51.71319961547852 4 L 56.51319885253906 1 L 3.486801147460938 1 M 0 0 L 60 0 L 52 5 L 8 5 L 0 0 Z" stroke="none" fill="#333"/></g></g><path d="M.14,26a2,2,0,0,1,2-2h96A2,2,0,0,1,100,25.266V26Z" transform="translate(4111 -20404)" fill="#239ecb"/><path d="M2.14,10a.5.5,0,0,1,.5-.5h99a.5.5,0,0,1,.5.5Z" transform="translate(4109 -20388)" fill="#fff"/><g transform="translate(4135.14 -20481.994)"><g transform="matrix(1, 0, 0, 1, -34, 0)" filter="url(#i)"><path d="M4,50H46a4,4,0,0,0,4-4L46,14a4,4,0,0,0-4-4H8a4,4,0,0,0-4,4L0,46A4,4,0,0,0,4,50Z" transform="translate(35 -6)" fill="#4e5564"/></g><path d="M4,4.971A91.677,91.677,0,0,0,25.348,8,82.4,82.4,0,0,0,46,4.971a4,4,0,0,0,0-8H4a4,4,0,0,0,0,8Z" transform="translate(1 3.029)" fill="#383f45"/><path d="M2,20a2,2,0,0,0,2-2L6,2A2,2,0,0,0,2,2L0,18A2,2,0,0,0,2,20Z" transform="translate(0 14)" fill="#383f45"/><path d="M4,20a2,2,0,0,1-2-2L0,2A2,2,0,0,1,4,2L6,18A2,2,0,0,1,4,20Z" transform="translate(46 14)" fill="#383f45"/></g></g></svg>