<svg xmlns="http://www.w3.org/2000/svg" width="120" height="104"><defs><filter id="a" width="51.5" height="18.5" x="34.75" y="63.75" filterUnits="userSpaceOnUse"><feOffset dx=".5" dy=".5"/><feGaussianBlur result="b" stdDeviation=".25"/><feFlood flood-opacity=".161"/><feComposite in2="b" operator="in"/><feComposite in="SourceGraphic"/></filter><filter id="b" width="6.5" height="10.5" x="24.75" y="67.75" filterUnits="userSpaceOnUse"><feOffset dx=".5" dy=".5"/><feGaussianBlur result="d" stdDeviation=".25"/><feFlood flood-opacity=".161"/><feComposite in2="d" operator="in"/><feComposite in="SourceGraphic"/></filter><filter id="c" width="11.5" height="6.5" x="54.75" y="84.748" filterUnits="userSpaceOnUse"><feOffset dx=".5" dy=".5"/><feGaussianBlur result="f" stdDeviation=".25"/><feFlood flood-opacity=".161"/><feComposite in2="f" operator="in"/><feComposite in="SourceGraphic"/></filter></defs><g fill="#dab98d" stroke="#707070" stroke-width=".1" transform="translate(0 44)"><rect width="120" height="60" stroke="none" rx="1"/><rect width="119.9" height="59.9" x=".05" y=".05" fill="none" rx=".95"/></g><g filter="url(#a)"><path fill="#666" d="M35.53 64h48.94a.529.529 0 0 1 .53.529v15.942a.529.529 0 0 1-.53.529H35.53a.529.529 0 0 1-.53-.529V64.529a.529.529 0 0 1 .53-.529"/></g><path fill="#333" d="M81.65 77.912h1.282a.14.14 0 0 1 .14.14v.613a.14.14 0 0 1-.14.14H81.65a.14.14 0 0 1-.14-.14v-.613a.14.14 0 0 1 .14-.14M79.046 77.912h1.282a.14.14 0 0 1 .14.14v.613a.14.14 0 0 1-.14.14h-1.282a.14.14 0 0 1-.14-.14v-.613a.14.14 0 0 1 .14-.14M77.111 77.912h1.282a.14.14 0 0 1 .14.14v.613a.14.14 0 0 1-.14.14h-1.282a.14.14 0 0 1-.14-.14v-.613a.14.14 0 0 1 .14-.14M75.176 77.912h1.282a.14.14 0 0 1 .14.14v.613a.14.14 0 0 1-.14.14h-1.282a.14.14 0 0 1-.14-.14v-.613a.14.14 0 0 1 .14-.14M72.87 77.912h1.282a.14.14 0 0 1 .14.14v.613a.14.14 0 0 1-.14.14H72.87a.14.14 0 0 1-.14-.14v-.613a.14.14 0 0 1 .14-.14M70.935 77.912h1.282a.14.14 0 0 1 .14.14v.613a.14.14 0 0 1-.14.14h-1.282a.14.14 0 0 1-.14-.14v-.613a.14.14 0 0 1 .14-.14M69.001 77.912h1.282a.14.14 0 0 1 .14.14v.613a.14.14 0 0 1-.14.14h-1.282a.14.14 0 0 1-.14-.14v-.613a.14.14 0 0 1 .14-.14M67.066 77.912h1.282a.14.14 0 0 1 .14.14v.613a.14.14 0 0 1-.14.14h-1.282a.14.14 0 0 1-.14-.14v-.613a.14.14 0 0 1 .14-.14M64.76 77.912h1.282a.14.14 0 0 1 .14.14v.613a.14.14 0 0 1-.14.14H64.76a.14.14 0 0 1-.14-.14v-.613a.14.14 0 0 1 .14-.14M62.825 77.912h1.282a.14.14 0 0 1 .14.14v.613a.14.14 0 0 1-.14.14h-1.282a.14.14 0 0 1-.14-.14v-.613a.14.14 0 0 1 .14-.14M60.891 77.912h1.282a.14.14 0 0 1 .14.14v.613a.14.14 0 0 1-.14.14h-1.282a.14.14 0 0 1-.14-.14v-.613a.14.14 0 0 1 .14-.14M58.956 77.912h1.282a.14.14 0 0 1 .14.14v.613a.14.14 0 0 1-.14.14h-1.282a.14.14 0 0 1-.14-.14v-.613a.14.14 0 0 1 .14-.14M56.65 77.912h1.282a.14.14 0 0 1 .14.14v.613a.14.14 0 0 1-.14.14H56.65a.14.14 0 0 1-.14-.14v-.613a.14.14 0 0 1 .14-.14M54.715 77.912h1.282a.14.14 0 0 1 .14.14v.613a.14.14 0 0 1-.14.14h-1.282a.14.14 0 0 1-.14-.14v-.613a.14.14 0 0 1 .14-.14M51.962 77.912h1.282a.14.14 0 0 1 .14.14v.613a.14.14 0 0 1-.14.14h-1.282a.14.14 0 0 1-.14-.14v-.613a.14.14 0 0 1 .14-.14M81.555 75.615h1.323a.194.194 0 0 1 .194.195v1.51a.081.081 0 0 1-.081.081h-1.55a.081.081 0 0 1-.081-.081v-1.51a.194.194 0 0 1 .194-.194M79.397 75.615h1.323a.194.194 0 0 1 .194.195v1.51a.081.081 0 0 1-.081.081h-1.55a.081.081 0 0 1-.081-.081v-1.51a.194.194 0 0 1 .194-.194M77.239 75.615h1.323a.194.194 0 0 1 .194.195v1.51a.081.081 0 0 1-.081.081h-1.55a.081.081 0 0 1-.081-.081v-1.51a.194.194 0 0 1 .194-.194M75.081 75.615h1.323a.194.194 0 0 1 .194.195v1.51a.081.081 0 0 1-.081.081h-1.55a.081.081 0 0 1-.081-.081v-1.51a.194.194 0 0 1 .194-.194M72.924 75.615h1.323a.194.194 0 0 1 .194.195v1.51a.081.081 0 0 1-.081.081h-1.55a.081.081 0 0 1-.081-.081v-1.51a.194.194 0 0 1 .194-.194M70.766 75.615h1.323a.194.194 0 0 1 .194.195v1.51a.081.081 0 0 1-.081.081h-1.55a.081.081 0 0 1-.081-.081v-1.51a.194.194 0 0 1 .194-.194M68.608 75.615h1.323a.194.194 0 0 1 .194.195v1.51a.081.081 0 0 1-.081.081h-1.55a.081.081 0 0 1-.081-.081v-1.51a.194.194 0 0 1 .194-.194M66.45 75.615h1.323a.194.194 0 0 1 .194.195v1.51a.081.081 0 0 1-.081.081h-1.55a.081.081 0 0 1-.081-.081v-1.51a.194.194 0 0 1 .194-.194M64.293 75.615h1.323a.194.194 0 0 1 .194.195v1.51a.081.081 0 0 1-.081.081H64.18a.081.081 0 0 1-.081-.081v-1.51a.194.194 0 0 1 .194-.194M62.135 75.615h1.323a.194.194 0 0 1 .194.195v1.51a.081.081 0 0 1-.081.081h-1.549a.081.081 0 0 1-.081-.081v-1.51a.194.194 0 0 1 .194-.194M59.977 75.615H61.3a.194.194 0 0 1 .194.195v1.51a.081.081 0 0 1-.081.081h-1.55a.081.081 0 0 1-.081-.081v-1.51a.194.194 0 0 1 .194-.194M57.819 75.615h1.323a.194.194 0 0 1 .194.195v1.51a.081.081 0 0 1-.081.081h-1.549a.081.081 0 0 1-.081-.081v-1.51a.194.194 0 0 1 .194-.194M55.662 75.615h1.323a.194.194 0 0 1 .194.195v1.51a.081.081 0 0 1-.081.081h-1.549a.081.081 0 0 1-.081-.081v-1.51a.194.194 0 0 1 .194-.194M52.016 75.615h2.811a.194.194 0 0 1 .194.195v1.51a.081.081 0 0 1-.081.081h-3.038a.081.081 0 0 1-.081-.081v-1.51a.194.194 0 0 1 .194-.194M80.662 73.462h2.216a.194.194 0 0 1 .194.195v1.51a.081.081 0 0 1-.081.081h-2.442a.081.081 0 0 1-.077-.081v-1.51a.194.194 0 0 1 .194-.194M78.504 73.462h1.323a.194.194 0 0 1 .194.195v1.51a.081.081 0 0 1-.081.081h-1.55a.081.081 0 0 1-.081-.081v-1.51a.194.194 0 0 1 .194-.194M76.346 73.462h1.323a.194.194 0 0 1 .194.195v1.51a.081.081 0 0 1-.081.081h-1.55a.081.081 0 0 1-.081-.081v-1.51a.194.194 0 0 1 .194-.194M74.189 73.462h1.323a.194.194 0 0 1 .194.195v1.51a.081.081 0 0 1-.081.081h-1.55a.081.081 0 0 1-.081-.081v-1.51a.194.194 0 0 1 .194-.194M72.031 73.462h1.323a.194.194 0 0 1 .194.195v1.51a.081.081 0 0 1-.081.081h-1.55a.081.081 0 0 1-.081-.081v-1.51a.194.194 0 0 1 .194-.194M69.873 73.462h1.323a.194.194 0 0 1 .194.195v1.51a.081.081 0 0 1-.081.081h-1.55a.081.081 0 0 1-.081-.081v-1.51a.194.194 0 0 1 .194-.194M67.715 73.462h1.323a.194.194 0 0 1 .194.195v1.51a.081.081 0 0 1-.081.081h-1.549a.081.081 0 0 1-.081-.081v-1.51a.194.194 0 0 1 .194-.194M65.558 73.462h1.323a.194.194 0 0 1 .194.195v1.51a.081.081 0 0 1-.081.081h-1.549a.081.081 0 0 1-.081-.081v-1.51a.194.194 0 0 1 .194-.194M63.4 73.462h1.323a.194.194 0 0 1 .194.195v1.51a.081.081 0 0 1-.081.081h-1.55a.081.081 0 0 1-.081-.081v-1.51a.194.194 0 0 1 .194-.194M61.242 73.462h1.323a.194.194 0 0 1 .194.195v1.51a.081.081 0 0 1-.081.081h-1.549a.081.081 0 0 1-.081-.081v-1.51a.194.194 0 0 1 .194-.194M59.084 73.462h1.323a.194.194 0 0 1 .194.195v1.51a.081.081 0 0 1-.081.081h-1.55a.081.081 0 0 1-.081-.081v-1.51a.194.194 0 0 1 .194-.194M56.927 73.462h1.323a.194.194 0 0 1 .194.195v1.51a.081.081 0 0 1-.081.081h-1.55a.081.081 0 0 1-.081-.081v-1.51a.194.194 0 0 1 .194-.194M54.769 73.462h1.323a.194.194 0 0 1 .194.195v1.51a.081.081 0 0 1-.081.081h-1.55a.081.081 0 0 1-.081-.081v-1.51a.194.194 0 0 1 .194-.194M52.016 73.462h1.918a.194.194 0 0 1 .194.195v1.51a.081.081 0 0 1-.081.081h-2.145a.081.081 0 0 1-.081-.081v-1.51a.194.194 0 0 1 .194-.194M79.807 71.236h3.071a.194.194 0 0 1 .194.195v1.51a.081.081 0 0 1-.081.081h-3.3a.081.081 0 0 1-.079-.081v-1.51a.194.194 0 0 1 .194-.194M77.648 71.236h1.323a.194.194 0 0 1 .194.195v1.51a.081.081 0 0 1-.081.081h-1.55a.081.081 0 0 1-.081-.081v-1.51a.194.194 0 0 1 .194-.194M75.491 71.236h1.323a.194.194 0 0 1 .194.195v1.51a.081.081 0 0 1-.081.081h-1.55a.081.081 0 0 1-.081-.081v-1.51a.194.194 0 0 1 .194-.194M73.333 71.236h1.323a.194.194 0 0 1 .194.195v1.51a.081.081 0 0 1-.081.081h-1.55a.081.081 0 0 1-.081-.081v-1.51a.194.194 0 0 1 .194-.194M71.175 71.236h1.323a.194.194 0 0 1 .194.195v1.51a.081.081 0 0 1-.081.081h-1.55a.081.081 0 0 1-.081-.081v-1.51a.194.194 0 0 1 .194-.194M69.017 71.236h1.323a.194.194 0 0 1 .194.195v1.51a.081.081 0 0 1-.081.081h-1.55a.081.081 0 0 1-.081-.081v-1.51a.194.194 0 0 1 .194-.194M66.86 71.236h1.323a.194.194 0 0 1 .194.195v1.51a.081.081 0 0 1-.081.081h-1.55a.081.081 0 0 1-.081-.081v-1.51a.194.194 0 0 1 .194-.194M64.702 71.236h1.323a.194.194 0 0 1 .194.195v1.51a.081.081 0 0 1-.081.081h-1.549a.081.081 0 0 1-.081-.081v-1.51a.194.194 0 0 1 .194-.194M62.544 71.236h1.323a.194.194 0 0 1 .194.195v1.51a.081.081 0 0 1-.081.081h-1.55a.081.081 0 0 1-.081-.081v-1.51a.194.194 0 0 1 .194-.194M60.386 71.236h1.323a.194.194 0 0 1 .194.195v1.51a.081.081 0 0 1-.081.081h-1.549a.081.081 0 0 1-.081-.081v-1.51a.194.194 0 0 1 .194-.194M58.229 71.236h1.323a.194.194 0 0 1 .194.195v1.51a.081.081 0 0 1-.081.081h-1.55a.081.081 0 0 1-.081-.081v-1.51a.194.194 0 0 1 .194-.194M56.071 71.236h1.323a.194.194 0 0 1 .194.195v1.51a.081.081 0 0 1-.081.081h-1.55a.081.081 0 0 1-.081-.081v-1.51a.194.194 0 0 1 .194-.194M52.016 71.236h3.22a.194.194 0 0 1 .194.195v1.51a.081.081 0 0 1-.081.081h-3.447a.081.081 0 0 1-.081-.081v-1.51a.194.194 0 0 1 .194-.194M78.653 68.935h4.225a.194.194 0 0 1 .194.195v1.51a.081.081 0 0 1-.081.081H78.54a.081.081 0 0 1-.081-.081v-1.51a.194.194 0 0 1 .194-.194M76.495 68.935h1.323a.194.194 0 0 1 .194.195v1.51a.081.081 0 0 1-.081.081h-1.55a.081.081 0 0 1-.081-.081v-1.51a.194.194 0 0 1 .194-.194M74.337 68.935h1.323a.194.194 0 0 1 .194.195v1.51a.081.081 0 0 1-.081.081h-1.55a.081.081 0 0 1-.081-.081v-1.51a.194.194 0 0 1 .194-.194M72.18 68.935h1.323a.194.194 0 0 1 .194.195v1.51a.081.081 0 0 1-.081.081h-1.55a.081.081 0 0 1-.081-.081v-1.51a.194.194 0 0 1 .194-.194M70.022 68.935h1.323a.194.194 0 0 1 .194.195v1.51a.081.081 0 0 1-.081.081h-1.55a.081.081 0 0 1-.081-.081v-1.51a.194.194 0 0 1 .194-.194M67.864 68.935h1.323a.194.194 0 0 1 .194.195v1.51a.081.081 0 0 1-.081.081h-1.55a.081.081 0 0 1-.081-.081v-1.51a.194.194 0 0 1 .194-.194M65.706 68.935h1.323a.194.194 0 0 1 .194.195v1.51a.081.081 0 0 1-.081.081h-1.55a.081.081 0 0 1-.081-.081v-1.51a.194.194 0 0 1 .194-.194M63.549 68.935h1.323a.194.194 0 0 1 .194.195v1.51a.081.081 0 0 1-.081.081h-1.55a.081.081 0 0 1-.081-.081v-1.51a.194.194 0 0 1 .194-.194M61.391 68.935h1.323a.194.194 0 0 1 .194.195v1.51a.081.081 0 0 1-.081.081h-1.55a.081.081 0 0 1-.081-.081v-1.51a.194.194 0 0 1 .194-.194M59.233 68.935h1.323a.194.194 0 0 1 .194.195v1.51a.081.081 0 0 1-.081.081h-1.55a.081.081 0 0 1-.081-.081v-1.51a.194.194 0 0 1 .194-.194M57.075 68.935h1.323a.194.194 0 0 1 .194.195v1.51a.081.081 0 0 1-.081.081h-1.55a.081.081 0 0 1-.081-.081v-1.51a.194.194 0 0 1 .194-.194M52.016 68.935h4.225a.194.194 0 0 1 .194.195v1.51a.081.081 0 0 1-.081.081h-4.451a.081.081 0 0 1-.081-.081v-1.51a.194.194 0 0 1 .194-.194M79.807 66.635h3.071a.194.194 0 0 1 .194.195v1.51a.081.081 0 0 1-.081.081h-3.3a.081.081 0 0 1-.079-.081v-1.51a.194.194 0 0 1 .194-.194M77.354 66.635h1.586a.194.194 0 0 1 .194.195v1.51a.081.081 0 0 1-.081.081H77.24a.081.081 0 0 1-.081-.081v-1.51a.194.194 0 0 1 .194-.194M74.913 66.635h1.586a.194.194 0 0 1 .194.195v1.51a.081.081 0 0 1-.081.081h-1.813a.081.081 0 0 1-.081-.081v-1.51a.194.194 0 0 1 .194-.194M63.549 66.635h10.4a.194.194 0 0 1 .194.195v1.51a.081.081 0 0 1-.081.081H63.435a.081.081 0 0 1-.081-.081v-1.51a.194.194 0 0 1 .194-.194M61.391 66.635h1.323a.194.194 0 0 1 .194.195v1.51a.081.081 0 0 1-.081.081h-1.55a.081.081 0 0 1-.081-.081v-1.51a.194.194 0 0 1 .194-.194M59.233 66.635h1.323a.194.194 0 0 1 .194.195v1.51a.081.081 0 0 1-.081.081h-1.55a.081.081 0 0 1-.081-.081v-1.51a.194.194 0 0 1 .194-.194M56.071 66.635h2.327a.194.194 0 0 1 .194.195v1.51a.081.081 0 0 1-.081.081h-2.554a.081.081 0 0 1-.081-.081v-1.51a.194.194 0 0 1 .194-.194M51.607 66.635h1.323a.194.194 0 0 1 .194.195v1.51a.081.081 0 0 1-.081.081h-1.549a.081.081 0 0 1-.081-.081v-1.51a.194.194 0 0 1 .194-.194M49.275 66.635h1.323a.194.194 0 0 1 .194.195v1.51a.081.081 0 0 1-.081.081h-1.549a.081.081 0 0 1-.081-.081v-1.51a.194.194 0 0 1 .194-.194M49.275 68.935h1.323a.194.194 0 0 1 .194.195v1.51a.081.081 0 0 1-.081.081h-1.549a.081.081 0 0 1-.081-.081v-1.51a.194.194 0 0 1 .194-.194M49.275 75.615h1.323a.194.194 0 0 1 .194.195v1.51a.081.081 0 0 1-.081.081h-1.549a.081.081 0 0 1-.081-.081v-1.51a.194.194 0 0 1 .194-.194M49.275 71.308h1.323a.194.194 0 0 1 .194.194v3.668a.081.081 0 0 1-.081.081h-1.549a.081.081 0 0 1-.081-.081v-3.668a.194.194 0 0 1 .194-.194M46.944 75.615h1.323a.194.194 0 0 1 .194.195v1.51a.081.081 0 0 1-.081.081h-1.549a.081.081 0 0 1-.081-.081v-1.51a.194.194 0 0 1 .194-.194M46.944 73.462h1.323a.194.194 0 0 1 .194.195v1.51a.081.081 0 0 1-.081.081h-1.549a.081.081 0 0 1-.081-.081v-1.51a.194.194 0 0 1 .194-.194M46.944 71.31h1.323a.194.194 0 0 1 .194.195v1.51a.081.081 0 0 1-.081.081h-1.549a.081.081 0 0 1-.081-.081v-1.51a.194.194 0 0 1 .194-.194M46.944 66.635h1.323a.194.194 0 0 1 .194.195v1.51a.081.081 0 0 1-.081.081h-1.549a.081.081 0 0 1-.081-.081v-1.51a.194.194 0 0 1 .194-.194M49.296 77.912h1.282a.14.14 0 0 1 .14.14v.613a.14.14 0 0 1-.14.14h-1.282a.14.14 0 0 1-.14-.14v-.613a.14.14 0 0 1 .14-.14M46.965 77.912h1.282a.14.14 0 0 1 .14.14v.613a.14.14 0 0 1-.14.14h-1.282a.14.14 0 0 1-.14-.14v-.613a.14.14 0 0 1 .14-.14M44.117 75.615h1.323a.194.194 0 0 1 .194.195v1.51a.081.081 0 0 1-.081.081h-1.549a.081.081 0 0 1-.081-.081v-1.51a.194.194 0 0 1 .194-.194M41.785 75.615h1.323a.194.194 0 0 1 .194.195v1.51a.081.081 0 0 1-.081.081h-1.549a.081.081 0 0 1-.081-.081v-1.51a.194.194 0 0 1 .194-.194M39.454 75.615h1.323a.194.194 0 0 1 .194.195v1.51a.081.081 0 0 1-.081.081h-1.549a.081.081 0 0 1-.081-.081v-1.51a.194.194 0 0 1 .194-.194M37.122 75.615h1.323a.194.194 0 0 1 .194.195v1.51a.081.081 0 0 1-.081.081h-1.55a.081.081 0 0 1-.081-.081v-1.51a.194.194 0 0 1 .194-.194M44.117 73.462h1.323a.194.194 0 0 1 .194.195v1.51a.081.081 0 0 1-.081.081h-1.549a.081.081 0 0 1-.081-.081v-1.51a.194.194 0 0 1 .194-.194M41.785 73.462h1.323a.194.194 0 0 1 .194.195v1.51a.081.081 0 0 1-.081.081h-1.549a.081.081 0 0 1-.081-.081v-1.51a.194.194 0 0 1 .194-.194M39.454 73.462h1.323a.194.194 0 0 1 .194.195v1.51a.081.081 0 0 1-.081.081h-1.549a.081.081 0 0 1-.081-.081v-1.51a.194.194 0 0 1 .194-.194M37.122 71.233h1.323a.194.194 0 0 1 .194.194v3.743a.081.081 0 0 1-.081.081h-1.55a.081.081 0 0 1-.081-.081v-3.743a.194.194 0 0 1 .194-.194M44.117 71.236h1.323a.194.194 0 0 1 .194.195v1.51a.081.081 0 0 1-.081.081h-1.549a.081.081 0 0 1-.081-.081v-1.51a.194.194 0 0 1 .194-.194M41.785 71.236h1.323a.194.194 0 0 1 .194.195v1.51a.081.081 0 0 1-.081.081h-1.549a.081.081 0 0 1-.081-.081v-1.51a.194.194 0 0 1 .194-.194M39.454 71.236h1.323a.194.194 0 0 1 .194.195v1.51a.081.081 0 0 1-.081.081h-1.549a.081.081 0 0 1-.081-.081v-1.51a.194.194 0 0 1 .194-.194M44.117 69.01h1.323a.194.194 0 0 1 .194.195v1.51a.081.081 0 0 1-.081.081h-1.549a.081.081 0 0 1-.081-.081v-1.51a.194.194 0 0 1 .194-.194M41.785 69.01h1.323a.194.194 0 0 1 .194.195v1.51a.081.081 0 0 1-.081.081h-1.549a.081.081 0 0 1-.081-.081v-1.51a.194.194 0 0 1 .194-.194M39.454 69.01h1.323a.194.194 0 0 1 .194.195v1.51a.081.081 0 0 1-.081.081h-1.549a.081.081 0 0 1-.081-.081v-1.51a.194.194 0 0 1 .194-.194M37.122 66.782h1.323a.194.194 0 0 1 .194.194v3.743a.081.081 0 0 1-.081.081h-1.55a.081.081 0 0 1-.081-.081v-3.743a.194.194 0 0 1 .194-.194M41.786 66.783h3.654a.194.194 0 0 1 .194.195v1.51a.081.081 0 0 1-.081.081h-3.881a.081.081 0 0 1-.081-.081v-1.51a.194.194 0 0 1 .194-.194M39.454 66.783h1.323a.194.194 0 0 1 .194.195v1.51a.081.081 0 0 1-.081.081h-1.549a.081.081 0 0 1-.081-.081v-1.51a.194.194 0 0 1 .194-.194"/><path fill="red" d="M37.063 77.912h3.773a.135.135 0 0 1 .135.135v.623a.135.135 0 0 1-.135.135h-3.773a.135.135 0 0 1-.135-.135v-.623a.135.135 0 0 1 .135-.135"/><g filter="url(#b)"><path fill="#4d4d4d" d="M25.186 72.977a10.329 10.329 0 0 0-.186 1.35v.14a2.715 2.715 0 0 0 .144.911A2.546 2.546 0 0 0 27.438 77h.124a2.546 2.546 0 0 0 2.294-1.622 2.712 2.712 0 0 0 .144-.911v-.135a10.349 10.349 0 0 0-.183-1.35c-.232-1.35.583-3.036-.408-4.211A2.4 2.4 0 0 0 27.5 68a2.4 2.4 0 0 0-1.909.77c-1 1.175-.176 2.861-.406 4.206"/></g><path fill="#333" d="M29.61 69.08c.677 1.175-.005 2.735.207 4A10.735 10.735 0 0 1 30 74.455c-.016-.46-1.155-2.783-1.231-3.236-.21-1.251 1.331-1.241.841-2.139M25.39 69.08c-.677 1.174.005 2.735-.206 4A10.691 10.691 0 0 0 25 74.455c.016-.46 1.151-2.783 1.231-3.236.21-1.251-1.327-1.241-.841-2.139"/><path fill="none" stroke="#000" stroke-miterlimit="10" stroke-width=".686" d="M27.5 76.985V73.36"/><path d="M27.508 74.094a.327.327 0 0 1 .334.318v1.264a.327.327 0 0 1-.334.318.327.327 0 0 1-.335-.318v-1.264a.327.327 0 0 1 .335-.318"/><path fill="red" d="M27.348 74.156h.319a.11.11 0 0 1 .109.11v1.557a.11.11 0 0 1-.109.109h-.319a.11.11 0 0 1-.109-.109v-1.557a.11.11 0 0 1 .109-.109"/><g filter="url(#c)" transform="translate(0 -.002)"><ellipse cx="5" cy="2.5" fill="#333" rx="5" ry="2.5" transform="rotate(180 32.5 45)"/></g><g fill="#fff" stroke="#333"><path stroke="none" d="M90 93.998H30v-2h60z"/><path fill="none" d="M89.5 93.498h-59v-1h59z"/></g><g fill="#c7c7c7"><path d="M38.143 87.498h43.714l6.4 4H31.743l6.4-4Z"/><path fill="#333" d="m86.513 90.998-4.8-3H38.287l-4.8 3h53.026m3.487 1H30l8-5h44l8 5Z"/></g><path fill="#239ecb" d="M10 103.994a2 2 0 0 1 2-2h96a2 2 0 0 1 1.86 1.266v.734Z"/><path fill="#fff" d="M10 103.994a.5.5 0 0 1 .5-.5h99a.5.5 0 0 1 .5.5Z"/><path fill="#4e5564" d="M39 44h42a4 4 0 0 0 4-4L81 8a4 4 0 0 0-4-4H43a4 4 0 0 0-4 4l-4 32a4 4 0 0 0 4 4Z"/><path fill="#383f45" d="M39 8a91.677 91.677 0 0 0 21.348 3.029A82.4 82.4 0 0 0 81 8a4 4 0 0 0 0-8H39a4 4 0 0 0 0 8ZM36 34a2 2 0 0 0 2-2l2-16a2 2 0 0 0-4 0l-2 16a2 2 0 0 0 2 2ZM84 34a2 2 0 0 1-2-2l-2-16a2 2 0 0 1 4 0l2 16a2 2 0 0 1-2 2Z"/></svg>